<svg xmlns="http://www.w3.org/2000/svg" width="260" height="260" stroke="currentColor"><g fill="none"><g stroke-linecap="round"><path d="M109.317 160.641c-.621 6.238-2.539 16.685-1.52 15.636 5.953-6.122 9.619-14.826 10.402-12.225.732 1.982-.5 14.663.948 13.302 4.632-4.977 7.284-12.186 9.964-17.638m-50.026.814c-2.493 5.571-6.589 11.478-7.631 17.52-.116 1.615 5.662-.583 10.852-3.25m51.423-13.354c4.991-.631 12.179-2.45 14.387-.042 1.271 1.387 1.908 4.365-2.497 9.113-3.534 3.334-10.804 8.308-13.518 8.011-4.407-.024 2.684-13.394 4.514-17.346m-37.604 13.996c-3.191.873-9.84 4.163-12.59 3.778-1.287-1.943 3.161-15.033 4.945-16.423.83-.546 4.01-2.241 11.36-1.173m-14.737 9.462c2.186-.74 7.742-2.807 12.439-3.009" stroke-width="2.5"/><path d="M105.335 70.765l-2.035-1.313m55.043 16.576L195.67 95.7m-38.056-5.844l34.284 10.445M74.889 86.039l18.864 3.571m-5.168-5.495l-19.619-2.327m26.581-1.524l-25.604-2.771m-6.67-9.626c17.967-5.765 31.936-4.863 42.24.062m47.62 3.131c14.796-1.171 38.223.83 63.771 16.476M152.228 73.57l3.514-.314m50.367 25.6c-3.093-4.822-6.613-5.342-11.209-2.552-4.072 3.146-3.89 5.548-.241 8.394-5.788.109-34.132-7.498-43.153-9.011.995-3.202 4.307-24.443 4.316-24.6m-83.739-5.065c-1.895 10.219-5.235 26.278-6.292 26.99 2.738-.112 19.935-.31 29.903-.465-2.398-1.295-2.713-4.281.57-6.855 1.698-1.331 5.832-3.76 9.79-.712m-2.696-17.884l-.971 16.344M30.986 205.168c2.903 2.466 4.708 7.413 4.98 13.182m170.133 22.626l16.188 11.582m-19.048-8.077l12.215 8.426m-19.588-8.517l14.048 9.366m-14.989-5.233l7.049 4.67m39.24-95.64l-5.03-5.005m4.457 11.493c-.312-.312-3.147-3.872-3.147-3.872m3.048 14.257l-5.19-5.53m-1.965 5.16l7.591 7.652m-.336 5.846l-10.419-10.105m.042 5.629l10.011 10.526m-.246 6.72l-8.64-10.799M55.385 170.984l-5.43-6.932m6.491 2.313l-6.209-7.41m5.26-9.558l-2.974-2.881m4.643.039l-3.396-3.193m5.093.608l-4.002-3.894m183.921-2.648c-.001 10.19-4.858 23.071-8.738 29.964 2.099-1.22 4.985-3.589 5.546-4.105-.636 2.042-5.332 10.178-5.555 14.397-.794 5.173 4.198 27.241 8.69 35.516M52.633 62.579c5.036-11.522 11.063-20.508 20.176-27.117-1.697 3.651-12.333 16.989-15.57 23.746-1.895 3.955-5.421 13.615-6.031 17.052 2.223-2.686 7.738-13.141 8.66-15.482m-.662 174.502l26.24 12.16m-36.89-14.366c2.935 2.264 35.437 16.543 35.609 16.606m-50.493-92.901l2.628 2.963m-7.584-3.955l4.528 4.932m-12.619-9.099l9.948 10.722m-20.202-17.036l18.994 20.256m20.665 3.582l3.444 4.726m-2.535-19.44l5.994 6.724m-5.181-10.916l4.289 4.522m.404-17.746l4.68 4.506m-27.901-27.745c-34.417-12.687-10.613-96.4 85.662-108.957m117.323 83.659l1.801 1.768m-1.64-6.903c1.205 1.171 1.933 2.359 2.832 2.776m-3.257-7.646l4.46 4.426m10.597 165.066l-31.655-26.754M57.319 135.413c-6.795 10.818-8.589 28.121-6.753 40.528m190.651-97.712c-.615 7.644-3.664 10.567-3.762 15.455M203.06 72.332c.881 2.143 3.138 3.095 5.999 4.52-.132-3.565-2.555-21.386-3.356-25.353.48.528 5.61 14.799 6.068 31.461m-12.865-41.131c2.571 10.791 4.298 21.839 4.089 32.695-2.565-3.181-2.431-4.25-3.812-7.58-.126.945-.193 3.824-.336 7.077-6.916-1.988-24.418-10.637-35.87-8.38-.118-1.702-.186-3.347-.729-4.776-.263 1.676-1.738 4.447-2.565 6.123-.315-6.151 1.863-24.851 1.46-31.193-.416.836-6.237 30.587-7.853 33.39.035-5.448.507-8.472.384-12.876-.782 1.386-1.384 6.475-2.024 9.7-4.379-.192-23.873-7.129-41.603-6.139 1.449-1.798 4.192-7.449 4.597-10.248-1.936 2.403-4.062 5.425-6.287 8.51.359-3.249 7.504-21.927 16.059-32.047-5.395 2.027-19.237 18.996-26.851 33.847-.075-2.218.386-4.899.739-8.11-1.762 2.397-3.136 5.407-4.833 7.641-10.187-1.133-21.175-1.942-29.695 1.221m147.873 179.661l17.954 12.087m-2.98-7.216l10.344 8.088m-27.663-27.621l35.847 29.1m-36.237-35.387l42.32 34.561"/></g><path d="M159.755 163.849l-1.667 73.199c-42.54-4.409-75.718-4.419-111.704-4.132 3.163-14.176 5.243-30.04 8.789-48.624 4.614-24.183 13.528-49.106 18.667-67.853 11.129-.527 60.015-2.125 86.428 8.633.47.191.53 20.822.53 20.822"/><path d="M97.286 251.28c.477.74.77 1.611 1.672 2.471 2.232 2.129 12.965 1.602 15.838 1.131 1.466-.446.051-3.264 1.196-3.521m76.072-8.367l-.171 7.906c-.165 3.183-1.361 4.726-10.862 5.167-4.811.224-9.265-.484-9.228-4.106M61.446 159.76c-3.059-1.439-4.678-6.446-3.329-10.56 1.338-4.079 4.432-6.001 7.809-6.08m145.846-60.161c-.143 11.61.169 24.068-4.249 34.758-5.419 13.112-20.023 18.854-23.058 24.662-1.069 2.045-.733 9.63-.269 10.57M68.159 59.299c-3.058 9.738-7.212 20.652-10.646 30.38-1.662 4.711-13.957 18.881-13.853 27.724 1.297 11.421 14.418 18.166 23.01 23.512m94.319 5.015c15.281 1.732 10.851 22.691-.831 18.209-6.085-2.334-5.744-18.954.831-18.209z"/><path d="M201.771 205.996l-8.611-4.971m6.2.479l-6.947-4.011m12.487 19.088l-10.216-5.898m8.938.429l-9.888-5.709m12.153 20.642l-9.479-5.473m9.228 1.39l-10.254-5.92m-1.873-13.231c-11.662 11.386-15.886 8.852-28.092 6.129m26.462-13.116c-5.126 4.942-22.751 19.977-33.204 20.058m-93.189 17.097c-.01.579 7.527 3.988 12.791 4.81-.338-1.541-.849-3.034-.961-4.593m.438 4.624c1.457 1.487 2.944 3.707 5.44 4.309 2.726.658 5.186-.883 7.713.754 3.737 2.421 3.829 7.131 6.538 7.991 9.237 2.936 7.504-4.204 18.545.482 1.448 1.455 23.506 4.247 26.085.215 1.761-2.753-9.464-2.345-8.517-4.671.782-1.92 7.839.003 8.528.294 3.446 1.457 6.609 5.356 9.07 5.945 12.131 2.905 14.92-.586 21.77-1.848 7.683-1.192 9.998 2.308 14.974-.897 2.929-2.259 3.281-6.651 4.906-8.614 1.36-1.642 7.998-1.91 12.195-4.553 2.767-1.743 1.4-4.358 1.178-6.8-1.87-20.502-2.358-27.368-17.673-40.688 5.94 3.749 5.335 29.073 8.743 32.182.595.605 3.924 4.439 8.988 8.497M121.606 4.884c-47.562 2.601-79.35 38.147-83.848 56.853 2.074-1.628 5.377-7.532 7-9.468-.324 1.837-4.589 13.178-5.104 16.557 4.376.467 3.987.555 5.965.7-18.827 28.516-20.031 37.355-21.46 38.772-8.836 8.765-21.744 25.719-21.315 34.943.503 10.805 19.593 18.492 22.002 28.211 2.059 8.308-4.175 16.338-.944 24.468 1.381 3.476 4.364 6.18 7.1 9.314 3.052 16.884-6.147 14.936-6.455 27.492-.132 5.39 13.352 16.994 21.895 17.057 6.873.051 13.393-5.7 20.27-4.324 5.372 1.074 9.301 5.081 14.794 6.207 3.843.788 13.778 1.056 15.78-.384m94.643-.519c1.585 1.641 17.756 4.296 22.821 2.432 2.418-.89 7.848-.248 14.47-.743 3.828-.286 17.75 4.352 21.969 1.93 2.603-6.232-8.136-24.352-7.663-35.423-.009-19.211 8.719-26.929 7.011-46.4-1.649-18.803-11.868-41.098-9.848-47.325 1.483-4.662 6.947-14.172 12.668-23.418 4.928-7.964 3.743-21.813 3.542-22.924-5.935-32.789-5.086-50.053-52.714-61.357"/></g><path d="M92.411 41.175c22.901-1.528 26.153 4.23 21.584 4.695-1.101.112-14.389-3.13-21.584-4.695zm62.098 8.231c1.451-2.989 9.768-6.504 24.681 1.485-1.357.034-6.687-.338-13.248-1.032-5.751-.609-10.482 2.662-11.433-.453zm16.375 104.257c2.34.037 11.351-.539 13.341-.624.009-.014.017-.028.014.001 5.299 7.528 4.109 34.916 4.109 36.923-3.408.138-2.063 6.413-6.936 9.588-4.748 3.094-12.174 3.094-14.175 9.336-2.999.081-6.042.412-8.562.412l1.097-45.225s11.095 4.213 11.11-10.411zM70.577 74.507l31.936 3.825.85-11.376s-16.871-6.267-31.594-1.225c.145.1-1.192 8.776-1.192 8.776zm85.158-3.613l-1.376 10.186 47.586 13.653.468-14.751c.483.078-23.27-10.864-46.642-9.089zM118.57 4.862s49.018-6.943 93.274 16.395c17.868 9.423 35.924 44.194 29.247 57.332-4.859-10.362-29.358-73.704-122.521-73.727z"/></svg>
