<svg width="32" height="32"><path d="M3.455 9.971c-1.019-1.448 1.416-3.376.263-3.13-1.797 3.818-2.201-2.394 3.44-1.26.016.016 5.812 2.382 6.016 3.982-3.3 3.103-2.875 3.359.097.673 4.795 2.735 10.371 3.673 10.596 3.765 8.67 2.49 8.092 19.2-1.047 17.931-3.472-.66-4.101-4.498-4.5-3.114 3.499 4.63-7.615-.275-1.457-8.756 6.083 1.394 4.252.384 4.092.36h-.001c-2.1-.52-12.612-3.855-17.498-10.454z"/><path d="M12.574 16.464c-3.619-.771-5.144-3.386-5.871-7.366.051-.18-.724.701-1.541 1.005-.396-1.023-.564-2.879 1.036-6.941-5.315 3.527-4.441 7.585-3.901 8.681-1.103.085-1.771-.885-1.953-1.788-.017-.087-2.607 6.298 6.708 14.398-1.313-1.395-1.973-2.156-2.803-3.859.864.311 2.336 1.244 3.611 1.618.244.071-1.756-2.607-1.384-2.682.112-.023.519.419.585.171.199-.725-1.185-2.766-.483-2.47 1.64.689 3.203 1.7 4.985 1.922.407.051-2.919-2.443-2.1-2.655.301-.077 2.251.813 3.669.612-1.337-.295-1.368-.32-2.044-.795-.164-.116 1.201.141 1.484.152z" fill="#fef7f1"/><path d="M27.285.001c6.13 8.504 7.295 26.04-2.661 28.336.407-.401 1.652-1.531 1.808-2.599-4.505 4.941-16.331 3.718-20.198-1.226 1.441 1.101 2.708 1.852 2.341.968-.677-1.635-2.073-1.915-2.964-3.471-.609-1.064 3.44 1.994 3.769 1.124.084-.223-1.928-2.42-1.551-2.555.967-.347.725-.031-.317-2.183 2.373 1.295 5.679 2.006 5.677 1.514-.001-.357-3.695-2.48-2.911-2.804.336-.139 3.335.936 4.192-.137-.773.061-1.568-.109-2.097-.397C26.217 14.998 24.891 4.742 27.287 0z" fill="#f77711"/></svg>
