<svg width="128" height="32" viewBox="0 0 128 32"><defs><mask id="A"><path d="M2.992 4.022h28.935V32.92H2.992z" fill="#fff"/><rect width="1" height="13" x=".7" y="10" ry=".8" transform="rotate(314)" rx=".5"/></mask></defs><path d="M6.023 11.978l15.91 15.91.599 2.014c.502.378 1.646 1.268 2.436 2.058a21 21 0 0 0 6.059-6.059c-.887-.888-1.947-2.289-2.058-2.436l-2.087-.526-15.91-15.91C9.392 5.449 6.82 4.11 4.973 5.957s-.444 4.528 1.049 6.022z" mask="url(#A)" fill="#bd8a6b"/><path d="M6.27 9.411c-.407-.795-.029 1.586-.836 1.89-.391-1.023-2.198-3.841 1.727-6.257-5.507.143-5.694 5.377-5.061 7.996-1.528-.097-1.97-6.775-2 0-.011 2.46 2.267 10.151 7 12-1.297-1.396-3.094-3.881-3-4 .117-.167 4.754 3.01 4 2-1.536-1.591-1.961-2.235-1-2.5.595-.173-1.693-2.796-1-2.5 1.62.689 4.021 2.224 6 2 .266-.275-3.16-1.663-3-2 .513-.865 3.845.355 4 0-.104-.504-1.332-.525-2-1-.162-.116 1.839-.411 1.5-.5-3.668-.84-5.79-3.093-6.5-6.5z" fill="#fef7f1"/><path d="M42 25.694h3.496V19.18l3.047-3.119 6.383 9.633h3.721l-7.923-11.743L58.327 6h-4.042l-8.789 9.052V6H42zm19.407-6.942H73.66v-2.599H61.407zm15.654 6.942h8.372c6.191 0 9.014-2.997 9.014-9.725 0-7.125-2.92-9.969-9.014-9.969H77.06zm3.496-2.569V8.599h4.33c4.33 0 6.063 1.59 6.063 7.37 0 5.841-2.053 7.156-6.063 7.156zM105.577 26c2.021 0 3.817-.275 5.197-.856v-2.446c-1.219.459-2.951.765-4.491.765-3.689 0-5.357-.887-5.71-3.7h11.131V17.07c0-3.609-2.342-6.177-6.961-6.177-5.068 0-7.506 2.875-7.506 7.523 0 5.138 3.015 7.584 8.34 7.584zm-5.004-8.41c0-2.875 1.026-4.19 4.266-4.19 2.727 0 3.785 1.193 3.785 3.18v1.009zm12.029 8.104h3.785l3.913-5.046 3.913 5.046H128l-5.774-7.37 5.549-7.125h-3.753l-3.721 4.832-3.721-4.832h-3.753l5.582 7.125zM25.1 29.04c.407-.403.844-1.928 1-3-4.503 4.96-16.135 3.963-20-1 .414.263 2.021 1.356 2 1-.677-1.641-2.109-2.438-3-4-.609-1.068 3.671 2.873 4 2 .084-.224-2.377-2.864-2-3 .966-.348 1.041.16 0-2 2.372 1.3 6.002 1.494 6 1-.001-.358-3.784-1.675-3-2 .336-.14 3.143 1.077 4 0 .098-.144-2.267-.97-2-1 13.837-1.579 12.605-12.24 15-17 1.224 3.158 5.017 11.06 5 18-.013 5.023-1.317 9.684-7 11z" fill="#f77711"/></svg>
