<svg width="32" height="32" viewBox="0 0 32 32"><defs><mask id="A"><path d="M2.992 4.022h28.935V32.92H2.992z" fill="#fff"/><rect width="1" height="13" x=".7" y="10" ry=".8" transform="rotate(314)" rx=".5"/></mask></defs><path d="M5.923 11.938l15.91 15.91.599 2.014c.502.378 1.646 1.268 2.436 2.058 3.282-2.116 5.284-4.858 6.059-6.059-.887-.888-1.947-2.289-2.058-2.436l-2.087-.526-15.91-15.91c-1.58-1.58-4.152-2.919-5.999-1.072s-.444 4.528 1.049 6.022z" mask="url(#A)" fill="#bd8a6b"/><path d="M6.17 9.371c-.407-.795-.029 1.586-.836 1.89-.391-1.023-2.198-3.841 1.727-6.257C1.554 5.147 1.367 10.381 2 13 .472 12.903.03 6.225 0 13c-.011 2.46 2.267 10.151 7 12-1.297-1.396-3.094-3.881-3-4 .117-.167 4.754 3.01 4 2-1.536-1.591-1.961-2.235-1-2.5.595-.173-1.693-2.796-1-2.5 1.62.689 4.021 2.224 6 2 .266-.275-3.16-1.663-3-2 .513-.865 3.845.355 4 0-.104-.504-1.332-.525-2-1-.162-.116 1.839-.411 1.5-.5-3.668-.84-5.79-3.093-6.5-6.5z" fill="#fef7f1"/><path d="M25 29c.407-.403.844-1.928 1-3-4.503 4.96-16.135 3.963-20-1 .414.263 2.021 1.356 2 1-.677-1.641-2.109-2.438-3-4-.609-1.068 3.671 2.873 4 2 .084-.224-2.377-2.864-2-3 .966-.348 1.041.16 0-2 2.372 1.3 6.002 1.494 6 1-.001-.358-3.784-1.675-3-2 .336-.14 3.143 1.077 4 0 .098-.144-2.267-.97-2-1C25.837 15.421 24.605 4.76 27 0c1.224 3.158 5.017 11.06 5 18-.013 5.023-1.317 9.684-7 11z" fill="#f77711"/></svg>
