<svg width="32" height="32" viewBox="0 0 32 32"><path d="M3 10c-.706-1.133.756-2.041 0-2-1.795 3.324-1.626-3.11 4-2 .016.016 5.797 2.434 6 4-3.291 3.038-2.964 3.329 0 .7 4.782 2.677 10.776 4.21 11 4.3 8.647 2.437 11.668 16.933-1 17-3.519-.151-4.602-4.355-5-3 3.49 4.532-7.141-.698-1-9 6.067 1.365 4.16.023 4 0-6.697-1.945-13.393-4.724-18-10z"/><path d="M6 10c.05-.18-.193.696-1 1-.391-1.023-.58-2.936 1-7-5.249 3.528-4.633 6.381-4 9-1.528-.097-1.97-6.775-2 0-.011 2.46 2.267 10.151 7 12-1.297-1.396-3.094-3.881-3-4 .117-.167 4.754 3.01 4 2-1.536-1.591-1.961-2.235-1-2.5.595-.173-1.693-2.796-1-2.5 1.62.689 4.021 2.224 6 2 .266-.275-3.16-1.663-3-2 .513-.865 3.845.355 4 0-.104-.504-1.332-.525-2-1-.162-.116 1.839-.411 1.5-.5-3.668-.84-5.79-3.093-6.5-6.5z" fill="#fef7f1"/><path d="M25 29c.407-.403.844-1.928 1-3-4.503 4.96-16.135 3.963-20-1 .414.263 2.021 1.356 2 1-.677-1.641-2.109-2.438-3-4-.609-1.068 3.671 2.873 4 2 .084-.224-2.377-2.864-2-3 .966-.348 1.041.16 0-2 2.372 1.3 6.002 1.494 6 1-.001-.358-3.784-1.675-3-2 .336-.14 3.143 1.077 4 0 .098-.144-2.267-.97-2-1C25.837 15.421 24.605 4.76 27 0c1.224 3.158 5.017 11.06 5 18-.013 5.023-1.317 9.684-7 11z" fill="#f77711"/></svg>
