<svg width="32" height="32" viewBox="0 0 32 32"><path d="M15.981 2.5c-5.805-.001-7.763 7.789-2.74 10.574-2.635.811-4.876 2.745-6.238 5.383 5.319 5.096 13.251 4.51 17.994.059-1.356-2.669-3.609-4.629-6.264-5.449 5.007-2.794 3.044-10.565-2.752-10.566z" fill="#bd8a6b"/><path d="M6.17 12.112c-.407-.795-.029 1.586-.836 1.89-.391-1.023-2.198-3.841 1.727-6.257-5.507.143-5.694 5.377-5.061 7.996-1.528-.097-1.97-6.775-2 0-.011 2.46 2.267 10.151 7 12-1.297-1.396-3.094-3.881-3-4 .117-.167 4.754 3.01 4 2-1.536-1.591-1.961-2.235-1-2.5.595-.173-1.693-2.796-1-2.5 1.62.689 4.021 2.224 6 2 .266-.275-3.16-1.663-3-2 .513-.865 3.845.355 4 0-.104-.504-1.332-.525-2-1-.162-.116 1.839-.411 1.5-.5-3.668-.84-5.79-3.093-6.5-6.5z" fill="#fef7f1"/><path d="M25 31.741c.407-.403.844-1.928 1-3-4.503 4.96-16.135 3.963-20-1 .414.263 2.021 1.356 2 1-.677-1.641-2.109-2.438-3-4-.609-1.068 3.671 2.873 4 2 .084-.224-2.377-2.864-2-3 .966-.348 1.041.16 0-2 2.372 1.3 6.002 1.494 6 1-.001-.358-3.784-1.675-3-2 .336-.14 3.143 1.077 4 0 .098-.144-2.267-.97-2-1 13.837-1.579 12.605-12.24 15-17 1.224 3.158 5.017 11.06 5 18-.013 5.023-1.317 9.684-7 11z" fill="#f77711"/></svg>
